<svg xmlns="http://www.w3.org/2000/svg" width="1200" height="320" viewBox="0 0 1200 320" role="img" aria-label="VRCSM — VRChat Settings Manager · Windows 缓存清理 / 配置备份 / 迁移 / 诊断" font-family="Georgia,'Iowan Old Style','Times New Roman',Times,serif"><rect width="1200" height="320" fill="#0B0A0C"/><text x="34" y="44" font-size="12" font-family="ui-monospace,'Cascadia Mono',Consolas,'SF Mono',monospace" font-weight="400" fill="#8A8F98" text-anchor="start" letter-spacing="2.0" opacity="0.9">INK LAB / 04 · tree · crayon</text><path d="M33.98 55.99 L317.0 52.77 L316.97 52.77 L599.96 55.85 L600.03 55.9 L882.94 58.1 L883.03 58.01 L1166.0 56.05" fill="none" stroke="#8A8F98" stroke-width="1.2" stroke-linecap="round" stroke-linejoin="round" opacity="1.0"/><text x="34" y="112" font-size="42" font-family="Georgia,'Iowan Old Style','Times New Roman',Times,serif" font-weight="400" fill="#f0eee6" text-anchor="start">VRCSM</text><path d="M34.02 124.03 L71.64 127.54 L71.6 127.63 L109.16 125.36 L109.21 125.39 L146.79 121.96 L146.7 122.08 L184.3 123.97" fill="none" stroke="#7d8590" stroke-width="2.4" stroke-linecap="round" stroke-linejoin="round" opacity="1.0"/><text x="34" y="152" font-size="17" font-family="Georgia,'Iowan Old Style','Times New Roman',Times,serif" font-weight="400" fill="#f0eee6" text-anchor="start" font-style="italic" opacity="0.92">VRChat Settings Manager · Windows 缓存清理 / 配置备份</text><text x="34" y="178" font-size="17" font-family="Georgia,'Iowan Old Style','Times New Roman',Times,serif" font-weight="400" fill="#f0eee6" text-anchor="start" font-style="italic" opacity="0.92">/ 迁移 / 诊断</text><path d="M61.46 199.69 L60.95 200.05 L59.58 204.7 L56.13 208.11 L51.22 209.13 L46.58 207.45 L43.77 203.41 L43.33 198.52 L45.08 194.03 L49.25 191.29 L54.34 191.09 L58.23 194.02 L60.65 198.1" fill="none" stroke="#7d8590" stroke-width="2.4" stroke-linecap="round" stroke-linejoin="round" opacity="1.0"/><path d="M65.98 199.95 L99.46 200.1 L99.44 200.1 L133.05 198.44 L133.02 198.38 L166.54 200.05 L166.52 200.05 L199.99 200.02" fill="none" stroke="#f0eee6" stroke-width="2.0" stroke-linecap="round" stroke-linejoin="round" opacity="1.0"/><path d="M66.05 200.01 L65.45 206.51 L65.48 206.53 L66.06 212.94 L66.02 213.05 L66.14 219.54 L66.23 219.55 L66.05 226.05" fill="none" stroke="#8A8F98" stroke-width="1.2" stroke-linecap="round" stroke-linejoin="round" opacity="1.0"/><path d="M66.07 226.0 L72.54 226.14 L72.47 226.14 L78.94 225.93 L79.03 225.86 L85.47 225.68 L85.49 225.8 L92.04 226.01" fill="none" stroke="#8A8F98" stroke-width="1.2" stroke-linecap="round" stroke-linejoin="round" opacity="1.0"/><text x="100" y="232" font-size="13" font-family="ui-monospace,'Cascadia Mono',Consolas,'SF Mono',monospace" font-weight="400" fill="#f0eee6" text-anchor="start" opacity="0.9">cache-cleaner</text><path d="M65.96 200.06 L64.67 212.45 L64.67 212.46 L65.63 224.99 L65.62 225.02 L65.55 237.44 L65.57 237.49 L66.0 250.05" fill="none" stroke="#8A8F98" stroke-width="1.2" stroke-linecap="round" stroke-linejoin="round" opacity="1.0"/><path d="M66.05 250.02 L72.46 249.76 L72.54 249.8 L79.01 249.93 L79.03 249.95 L85.43 249.76 L85.5 249.74 L91.93 250.0" fill="none" stroke="#8A8F98" stroke-width="1.2" stroke-linecap="round" stroke-linejoin="round" opacity="1.0"/><text x="100" y="256" font-size="13" font-family="ui-monospace,'Cascadia Mono',Consolas,'SF Mono',monospace" font-weight="400" fill="#f0eee6" text-anchor="start" opacity="0.9">desktop-app</text><path d="M66.0 200.04 L66.2 218.49 L66.19 218.53 L66.83 236.98 L66.84 237.05 L68.13 255.45 L68.06 255.47 L66.04 274.03" fill="none" stroke="#8A8F98" stroke-width="1.2" stroke-linecap="round" stroke-linejoin="round" opacity="1.0"/><path d="M65.93 273.97 L72.44 274.01 L72.56 274.02 L79.02 273.81 L78.95 273.7 L85.55 274.51 L85.57 274.44 L92.01 273.94" fill="none" stroke="#8A8F98" stroke-width="1.2" stroke-linecap="round" stroke-linejoin="round" opacity="1.0"/><text x="100" y="280" font-size="13" font-family="ui-monospace,'Cascadia Mono',Consolas,'SF Mono',monospace" font-weight="400" fill="#f0eee6" text-anchor="start" opacity="0.9">electron</text><path d="M65.95 199.99 L66.57 224.45 L66.63 224.5 L66.02 249.06 L65.96 249.01 L64.83 273.46 L64.85 273.49 L65.97 298.04" fill="none" stroke="#8A8F98" stroke-width="1.2" stroke-linecap="round" stroke-linejoin="round" opacity="1.0"/><path d="M65.94 298.06 L72.46 297.61 L72.45 297.65 L78.94 298.33 L78.99 298.26 L85.51 298.51 L85.51 298.53 L92.02 297.94" fill="none" stroke="#8A8F98" stroke-width="1.2" stroke-linecap="round" stroke-linejoin="round" opacity="1.0"/><text x="100" y="304" font-size="13" font-family="ui-monospace,'Cascadia Mono',Consolas,'SF Mono',monospace" font-weight="400" fill="#f0eee6" text-anchor="start" opacity="0.9">vr</text><text x="1166" y="150" font-size="30" font-family="Georgia,'Iowan Old Style','Times New Roman',Times,serif" font-weight="400" fill="#7d8590" text-anchor="end">★3</text><text x="1166" y="172" font-size="11" font-family="ui-monospace,'Cascadia Mono',Consolas,'SF Mono',monospace" font-weight="400" fill="#8A8F98" text-anchor="end" letter-spacing="2.0" opacity="0.9">TYPESCRIPT · NOASSERTION</text><text x="1166" y="190" font-size="11" font-family="ui-monospace,'Cascadia Mono',Consolas,'SF Mono',monospace" font-weight="400" fill="#8A8F98" text-anchor="end" letter-spacing="2.0" opacity="0.6">2026-09-30</text><text x="700" y="286" font-size="15" font-family="ui-monospace,'Cascadia Mono',Consolas,'SF Mono',monospace" font-weight="400" fill="#7d8590" text-anchor="start" opacity="0.9">$</text><text x="718" y="286" font-size="14" font-family="ui-monospace,'Cascadia Mono',Consolas,'SF Mono',monospace" font-weight="400" fill="#f0eee6" text-anchor="start" opacity="0.9">cd web &amp;&amp; pnpm install &amp;&amp; pnpm build … ild --preset x64-release</text><path d="M12.01 12.04 L1187.98 11.98 L1188.0 307.96 L11.97 308.04 Z" fill="none" stroke="#f0eee6" stroke-width="1.6" stroke-linecap="round" stroke-linejoin="round" opacity="1.0"/><path d="M14.01 11.07 L1189.96 10.96 L1189.99 306.94 L13.96 307.06 Z" transform="translate(1.6 1.2)" fill="none" stroke="#f0eee6" stroke-width="1.1" stroke-linecap="round" stroke-linejoin="round" opacity="0.22"/></svg>